<svg xmlns="http://www.w3.org/2000/svg" viewBox="0 0 64 64" role="img" aria-label="Reta Unfiltered">
  <rect width="64" height="64" rx="14" fill="#070707"/>
  <path d="M32 5 55 17v26L32 59 9 43V17L32 5Z" fill="#111" stroke="#f2bf2f" stroke-width="5" stroke-linejoin="round"/>
  <path d="M32 11 49 20v20L32 52 15 40V20l17-9Z" fill="#1c1c1c" stroke="#60440f" stroke-width="2" stroke-linejoin="round"/>
  <path d="M20 18h12c6 0 10 4 10 10 0 4-2 7-5 9l6 11h-8l-5-10h-3v10h-7V18Zm7 7v7h5c2 0 3-1 3-4s-1-3-3-3h-5Z" fill="#fff"/>
  <path d="M38 18h7v20c0 8-5 12-13 12v-7c4 0 6-2 6-6V18Z" fill="#f2bf2f"/>
</svg>
